<?xml version="1.0" encoding="utf-8"?>
<svg viewBox="0 0 500 500" xmlns="http://www.w3.org/2000/svg">
  <path d="M 0 0 L 500 0 L 500 500 L 0 500 Z M 281.57 327.991 C 285.832 336.757 291.502 344.116 298.579 350.067 C 305.656 356.018 314.06 360.481 323.791 363.457 C 333.522 366.432 343.855 367.92 354.792 367.92 C 372.485 367.92 389.011 364.542 404.371 357.787 C 419.732 351.032 431.352 341.542 439.233 329.318 L 439.233 362.371 L 488.692 362.371 L 488.692 211.584 C 488.692 196.787 485.877 184.362 480.248 174.309 C 474.618 164.256 467.099 156.094 457.69 149.821 C 448.281 143.548 437.665 139.045 425.843 136.311 C 414.022 133.576 401.999 132.209 389.775 132.209 C 370.957 132.209 353.064 134.662 336.095 139.568 C 319.126 144.473 303.243 151.188 288.446 159.713 L 308.712 198.797 C 321.257 191.559 334.527 186.05 348.52 182.271 C 362.513 178.491 376.264 176.601 389.775 176.601 C 404.572 176.601 416.515 179.496 425.602 185.286 C 434.689 191.077 439.233 199.843 439.233 211.584 L 439.233 220.51 C 432.96 219.867 426.768 219.384 420.656 219.063 C 414.544 218.741 407.226 218.58 398.702 218.58 C 383.261 218.58 368.102 220.229 353.224 223.526 C 338.347 226.823 325.158 231.769 313.658 238.363 C 302.158 244.958 292.869 253.201 285.792 263.093 C 278.715 272.984 275.177 284.524 275.177 297.713 C 275.177 309.133 277.308 319.226 281.57 327.991 Z M 324.635 295.06 C 324.635 285.57 330.868 277.608 343.333 271.175 C 355.798 264.741 374.254 261.524 398.702 261.524 C 404.009 261.524 410.121 261.605 417.037 261.766 C 423.954 261.927 431.352 262.65 439.233 263.937 L 439.233 272.381 C 439.233 279.94 437.343 286.856 433.564 293.129 C 429.784 299.402 424.597 304.75 418.002 309.173 C 411.408 313.596 403.808 317.054 395.203 319.547 C 386.598 322.04 377.39 323.287 367.579 323.287 C 338.95 323.287 324.635 313.878 324.635 295.06 Z M 250.686 269.003 C 250.686 247.612 247.711 228.432 241.76 211.463 C 235.809 194.494 227.565 180.139 217.03 168.398 C 206.495 156.657 193.829 147.69 179.032 141.498 C 164.235 135.305 147.749 132.209 129.574 132.209 C 112.043 132.209 96.039 135.144 81.563 141.015 C 67.088 146.886 54.663 155.089 44.289 165.624 C 33.914 176.159 25.872 188.624 20.163 203.019 C 14.453 217.414 11.598 233.136 11.598 250.185 C 11.598 267.717 14.694 283.64 20.886 297.955 C 27.079 312.27 35.643 324.614 46.58 334.988 C 57.517 345.362 70.465 353.444 85.423 359.235 C 100.381 365.025 116.546 367.92 133.917 367.92 C 153.056 367.92 170.708 365.266 186.873 359.958 C 203.038 354.651 218.358 344.759 232.833 330.283 L 207.259 295.06 C 198.574 303.423 188.24 310.138 176.258 315.205 C 164.275 320.271 150.162 322.804 133.917 322.804 C 113.168 322.804 96.642 317.697 84.338 307.484 C 72.033 297.271 64.675 284.444 62.262 269.003 Z M 64.434 225.094 C 67.007 210.619 74.567 198.998 87.112 190.232 C 99.657 181.466 113.811 177.083 129.574 177.083 C 145.336 177.083 159.409 181.466 171.794 190.232 C 184.179 198.998 191.658 210.619 194.231 225.094 Z" style="stroke: rgba(0, 0, 0, 0); fill: rgb(2, 102, 156);"/>
</svg>