<?xml version="1.0" encoding="UTF-8"?>
<svg baseProfile="tiny-ps" xmlns:cc="http://creativecommons.org/ns#" xmlns:dc="http://purl.org/dc/elements/1.1/" xmlns:inkscape="http://www.inkscape.org/namespaces/inkscape" xmlns:rdf="http://www.w3.org/1999/02/22-rdf-syntax-ns#" xmlns:sodipodi="http://sodipodi.sourceforge.net/DTD/sodipodi-0.dtd" xmlns:svg="http://www.w3.org/2000/svg" xmlns="http://www.w3.org/2000/svg" xmlns:xlink="http://www.w3.org/1999/xlink" version="1.2" id="svg22" viewBox="0 0 500 500" xml:space="preserve">
  <title>EA</title>
  <path d="M 62.262 269.003 Q 65.881 292.164 84.338 307.484 Q 102.794 322.804 133.917 322.804 Q 158.284 322.804 176.258 315.205 Q 194.231 307.605 207.259 295.06 L 232.833 330.283 Q 211.12 351.997 186.873 359.958 Q 162.626 367.92 133.917 367.92 Q 107.86 367.92 85.423 359.235 Q 62.986 350.549 46.58 334.988 Q 30.175 319.427 20.886 297.955 Q 11.598 276.483 11.598 250.185 Q 11.598 224.612 20.163 203.019 Q 28.727 181.426 44.289 165.624 Q 59.85 149.821 81.563 141.015 Q 103.277 132.209 129.574 132.209 Q 156.836 132.209 179.032 141.498 Q 201.228 150.786 217.03 168.398 Q 232.833 186.01 241.76 211.463 Q 250.686 236.916 250.686 269.003 Z M 194.231 225.094 Q 190.371 203.381 171.794 190.232 Q 153.217 177.083 129.574 177.083 Q 105.93 177.083 87.112 190.232 Q 68.294 203.381 64.434 225.094 Z" style="fill: rgb(2, 102, 154); white-space: pre;"></path>
  <path d="M 275.177 297.713 Q 275.177 277.93 285.792 263.093 Q 296.408 248.255 313.658 238.363 Q 330.908 228.472 353.224 223.526 Q 375.541 218.58 398.702 218.58 Q 411.488 218.58 420.656 219.063 Q 429.824 219.545 439.233 220.51 L 439.233 211.584 Q 439.233 193.972 425.602 185.286 Q 411.971 176.601 389.775 176.601 Q 369.509 176.601 348.52 182.271 Q 327.53 187.94 308.712 198.797 L 288.446 159.713 Q 310.642 146.926 336.095 139.568 Q 361.548 132.209 389.775 132.209 Q 408.111 132.209 425.843 136.311 Q 443.576 140.412 457.69 149.821 Q 471.803 159.23 480.248 174.309 Q 488.692 189.388 488.692 211.584 L 488.692 362.371 L 439.233 362.371 L 439.233 329.318 Q 427.412 347.654 404.371 357.787 Q 381.331 367.92 354.792 367.92 Q 338.387 367.92 323.791 363.457 Q 309.194 358.993 298.579 350.067 Q 287.963 341.14 281.57 327.991 Q 275.177 314.843 275.177 297.713 Z M 367.579 323.287 Q 382.296 323.287 395.203 319.547 Q 408.111 315.808 418.002 309.173 Q 427.894 302.539 433.564 293.129 Q 439.233 283.72 439.233 272.381 L 439.233 263.937 Q 427.412 262.007 417.037 261.766 Q 406.663 261.524 398.702 261.524 Q 362.03 261.524 343.333 271.175 Q 324.635 280.825 324.635 295.06 Q 324.635 323.287 367.579 323.287 Z" style="fill: rgb(2, 102, 154); white-space: pre;"></path>
</svg>
